<?xml version="1.0" encoding="UTF-8"?>
<svg width="18px" height="17px" viewBox="0 0 18 17" version="1.1" xmlns="http://www.w3.org/2000/svg" xmlns:xlink="http://www.w3.org/1999/xlink">
    <title>Icon</title>
    <g id="User-Settings" stroke="none" stroke-width="1" fill="none" fill-rule="evenodd">
        <g id="V1-User-Settings---Billing" transform="translate(-103.000000, -126.000000)">
            <g id="Navigation" transform="translate(68.000000, 0.000000)">
                <g id="02" transform="translate(16.000000, 113.000000)">
                    <g id="00-General-/-01-Icons-/-02-Common-/-20-Case" transform="translate(16.000000, 10.000000)">
                        <rect id="BG" x="0" y="0" width="24" height="24"></rect>
                        <path d="M14,3 C15.1045695,3 16,3.8954305 16,5 L16,7 L19,7 C20.1045695,7 21,7.8954305 21,9 L21,18 C21,19.1045695 20.1045695,20 19,20 L5,20 C3.8954305,20 3,19.1045695 3,18 L3,9 C3,7.8954305 3.8954305,7 5,7 L8,7 L8,5 C8,3.8954305 8.8954305,3 10,3 L14,3 Z M19,9 L5,9 L5,18 L19,18 L19,9 Z M14,5 L10,5 L10,7 L14,7 L14,5 Z" id="color" fill="#7E84A3" fill-rule="evenodd"></path>
                    </g>
                </g>
            </g>
        </g>
    </g>
</svg>