<?xml version="1.0" encoding="UTF-8"?>
<svg width="20px" height="14px" viewBox="0 0 20 14" version="1.1" xmlns="http://www.w3.org/2000/svg" xmlns:xlink="http://www.w3.org/1999/xlink">
    <title>Icon</title>
    <g id="User-Settings" stroke="none" stroke-width="1" fill="none" fill-rule="evenodd">
        <g id="V2-User-Settings---Account" transform="translate(-102.000000, -172.000000)">
            <g id="Navigation" transform="translate(68.000000, 0.000000)">
                <g id="02" transform="translate(16.000000, 157.000000)">
                    <g id="00-General-/-01-Icons-/-05-Finance-/-01-Credit-card" transform="translate(16.000000, 10.000000)">
                        <rect id="BG" x="0" y="0" width="24" height="24"></rect>
                        <path d="M20,5 C21.1045695,5 22,5.8954305 22,7 L22,17 C22,18.1045695 21.1045695,19 20,19 L4,19 C2.8954305,19 2,18.1045695 2,17 L2,7 C2,5.8954305 2.8954305,5 4,5 L20,5 Z M4,15 L4,17 L20,17 L20,15 L4,15 Z M4,13 L20,13 L20,7 L4,7 L4,13 Z" id="color" fill="#7E84A3" fill-rule="evenodd"></path>
                    </g>
                </g>
            </g>
        </g>
    </g>
</svg>