<?xml version="1.0" encoding="UTF-8"?>
<svg width="16px" height="18px" viewBox="0 0 16 18" version="1.1" xmlns="http://www.w3.org/2000/svg" xmlns:xlink="http://www.w3.org/1999/xlink">
    <title>color</title>
    <g id="Symbols" stroke="none" stroke-width="1" fill="none" fill-rule="evenodd">
        <g id="home" transform="translate(-4.000000, -3.000000)" fill="#7E84A3">
            <path d="M6,21 C4.8954305,21 4,20.1045695 4,19 L4,11.7603986 C4,11.2705703 4.17975714,10.7977732 4.50518136,10.431671 L10.5051814,3.68167097 C11.2390174,2.85610543 12.5031621,2.78174397 13.3287277,3.51558001 C13.3872974,3.56764198 13.4427567,3.62310125 13.4948186,3.68167097 L19.4948186,10.431671 C19.8202429,10.7977732 20,11.2705703 20,11.7603986 L20,19 C20,20.1045695 19.1045695,21 18,21 L6,21 Z M12,5.01039864 L6,11.7603986 L6,19 L9,18.9993772 L9,14 C9,13.4477153 9.44771525,13 10,13 L14,13 C14.5522847,13 15,13.4477153 15,14 L15,18.9993772 L18,19 L18,11.7603986 L12,5.01039864 Z M13,15 L11,15 L11,19 L13,19 L13,15 Z" id="color"></path>
        </g>
    </g>
</svg>
