<?xml version="1.0" encoding="UTF-8"?>
<svg width="16px" height="18px" viewBox="0 0 16 18" version="1.1" xmlns="http://www.w3.org/2000/svg" xmlns:xlink="http://www.w3.org/1999/xlink">
    <title>Icon</title>
    <g id="User-Settings" stroke="none" stroke-width="1" fill="none" fill-rule="evenodd">
        <g id="V2-User-Settings---Account" transform="translate(-104.000000, -82.000000)">
            <g id="Navigation" transform="translate(68.000000, 0.000000)">
                <g id="01" transform="translate(16.000000, 69.000000)">
                    <g id="00-General-/-01-Icons-/-02-Common-/-02-User" transform="translate(16.000000, 10.000000)">
                        <rect id="BG" x="0" y="0" width="24" height="24"></rect>
                        <path d="M12,12 C16.3349143,12 19.8645429,15.4478378 19.9961932,19.7508207 L20,20 L20,21 L4,21 L4,20 C4,15.581722 7.581722,12 12,12 Z M12,14 C9.14443681,14 6.75479348,15.9948401 6.14860543,18.6669848 L6.10104483,18.8976538 L6.084,19 L17.915,19 L17.8989552,18.8976538 C17.409481,16.2618003 15.1969067,14.2311854 12.4738604,14.0184375 L12.2249383,14.0041385 L12,14 Z M12,3 C14.209139,3 16,4.790861 16,7 C16,9.209139 14.209139,11 12,11 C9.790861,11 8,9.209139 8,7 C8,4.790861 9.790861,3 12,3 Z M12,5 C10.8954305,5 10,5.8954305 10,7 C10,8.1045695 10.8954305,9 12,9 C13.1045695,9 14,8.1045695 14,7 C14,5.8954305 13.1045695,5 12,5 Z" id="color" fill="#7E84A3" fill-rule="evenodd"></path>
                    </g>
                </g>
            </g>
        </g>
    </g>
</svg>