<?xml version="1.0" encoding="UTF-8"?>
<svg width="17px" height="17px" viewBox="0 0 17 17" version="1.1" xmlns="http://www.w3.org/2000/svg" xmlns:xlink="http://www.w3.org/1999/xlink">
    <title>Icon</title>
    <g id="Interface-Filter-Segments" stroke="none" stroke-width="1" fill="none" fill-rule="evenodd">
        <g id="Search-&amp;-Filter" transform="translate(-246.000000, -87.000000)">
            <g transform="translate(205.000000, 0.000000)" id="Search">
                <g transform="translate(22.000000, 48.000000)">
                    <g id="00-General-/-01-Icons-/-01-Actions-/-16-Search" transform="translate(16.000000, 36.000000)">
                        <rect id="BG" x="0" y="0" width="24" height="24"></rect>
                        <path d="M10.5,3 C14.6421356,3 18,6.35786438 18,10.5 C18,12.2101481 17.4276233,13.7866104 16.4639906,15.0482663 L19.7071068,18.2928932 C20.0976311,18.6834175 20.0976311,19.3165825 19.7071068,19.7071068 C19.3466228,20.0675907 18.7793918,20.0953203 18.3871006,19.7902954 L18.2928932,19.7071068 L15.0482663,16.4639906 C13.7866104,17.4276233 12.2101481,18 10.5,18 C6.35786438,18 3,14.6421356 3,10.5 C3,6.35786438 6.35786438,3 10.5,3 Z M10.5,5 C7.46243388,5 5,7.46243388 5,10.5 C5,13.5375661 7.46243388,16 10.5,16 C11.8511375,16 13.0884821,15.5127945 14.0459364,14.7044808 C14.0910318,14.5536336 14.1738048,14.4119817 14.2928932,14.2928932 C14.4119817,14.1738048 14.5536336,14.0910318 14.7040879,14.0445742 C15.5127945,13.0884821 16,11.8511375 16,10.5 C16,7.46243388 13.5375661,5 10.5,5 Z" id="color" fill="#7E84A3" fill-rule="evenodd"></path>
                    </g>
                </g>
            </g>
        </g>
    </g>
</svg>